<svg width="31" height="30" viewBox="0 0 31 30" fill="none" xmlns="http://www.w3.org/2000/svg">
<path d="M27.8964 19.9554V19.6444H27.818L27.7272 19.858L27.6368 19.6444H27.5579V19.9554H27.6137V19.7209L27.6985 19.9233H27.7563L27.8411 19.7204V19.9554H27.8964ZM27.3985 19.9554V19.6974H27.4992V19.6449H27.2426V19.6974H27.3432V19.9554H27.3985Z" fill="#F79410"/>
<path d="M18.9947 21.2914H12.218V8.70642H18.9947V21.2914Z" fill="#FF5F00"/>
<path d="M12.6514 14.9965C12.6514 12.4435 13.8081 10.1695 15.6094 8.70397C14.2922 7.63232 12.6297 6.99269 10.8229 6.99269C6.54563 6.99269 3.07837 10.576 3.07837 14.9965C3.07837 19.4169 6.54563 23.0002 10.8229 23.0002C12.6297 23.0002 14.2922 22.3606 15.6094 21.289C13.8081 19.8235 12.6514 17.5494 12.6514 14.9965Z" fill="#EB001B"/>
<path d="M28.1376 14.9943C28.1376 19.4147 24.6704 22.998 20.3931 22.998C18.5863 22.998 16.9238 22.3584 15.6061 21.2868C17.4079 19.8213 18.5646 17.5472 18.5646 14.9943C18.5646 12.4413 17.4079 10.1673 15.6061 8.70177C16.9238 7.63012 18.5863 6.99049 20.3931 6.99049C24.6704 6.99049 28.1376 10.5738 28.1376 14.9943Z" fill="#F79E1B"/>
</svg>
