<svg width="43" height="41" viewBox="0 0 43 41" fill="none" xmlns="http://www.w3.org/2000/svg">
<g clip-path="url(#clip0_107_57)">
<path d="M10.8203 7.43561H9.08464C8.16398 7.43561 7.28102 7.7809 6.63002 8.39553C5.97901 9.01017 5.61328 9.84378 5.61328 10.713V16.4484C5.61328 18.8388 6.61904 21.1312 8.40931 22.8215C10.1996 24.5117 12.6277 25.4613 15.1595 25.4613C17.6913 25.4613 20.1194 24.5117 21.9097 22.8215C23.7 21.1312 24.7057 18.8388 24.7057 16.4484V10.713C24.7057 9.84378 24.34 9.01017 23.689 8.39553C23.038 7.7809 22.155 7.43561 21.2344 7.43561H19.4987" stroke="white" stroke-width="2" stroke-linecap="round" stroke-linejoin="round"/>
<path d="M14.2917 25.4613C14.2917 26.7524 14.561 28.031 15.0844 29.2239C15.6077 30.4168 16.3748 31.5007 17.3419 32.4137C18.3089 33.3267 19.4569 34.0509 20.7204 34.545C21.9839 35.0391 23.3381 35.2934 24.7057 35.2934C26.0733 35.2934 27.4275 35.0391 28.691 34.545C29.9545 34.0509 31.1025 33.3267 32.0696 32.4137C33.0366 31.5007 33.8037 30.4168 34.3271 29.2239C34.8504 28.031 35.1198 26.7524 35.1198 25.4613V20.5452" stroke="white" stroke-width="2" stroke-linecap="round" stroke-linejoin="round"/>
<path d="M19.4987 5.79688V9.07427" stroke="white" stroke-width="2" stroke-linecap="round" stroke-linejoin="round"/>
<path d="M10.8203 5.79688V9.07427" stroke="white" stroke-width="2" stroke-linecap="round" stroke-linejoin="round"/>
<path d="M35.1198 20.5451C37.037 20.5451 38.5911 19.0778 38.5911 17.2678C38.5911 15.4577 37.037 13.9904 35.1198 13.9904C33.2026 13.9904 31.6484 15.4577 31.6484 17.2678C31.6484 19.0778 33.2026 20.5451 35.1198 20.5451Z" stroke="white" stroke-width="2" stroke-linecap="round" stroke-linejoin="round"/>
</g>
<defs>
<clipPath id="clip0_107_57">
<rect width="41.6563" height="39.3287" fill="white" transform="translate(0.40625 0.880798)"/>
</clipPath>
</defs>
</svg>
