<svg width="30" height="29" viewBox="0 0 30 29" fill="none" xmlns="http://www.w3.org/2000/svg">
<path d="M17.9942 11.6776L11.9503 17.5725C11.1739 16.8152 10.6962 15.7784 10.6962 14.625C10.6962 12.3183 12.6073 10.4543 14.9723 10.4543C16.1548 10.4543 17.2178 10.9203 17.9942 11.6776Z" stroke="#221F1F" stroke-opacity="0.4" stroke-width="1.5" stroke-linecap="round" stroke-linejoin="round"/>
<path d="M21.924 7.36708C19.8337 5.82928 17.4448 4.99048 14.9723 4.99048C10.7559 4.99048 6.8262 7.41368 4.09092 11.6077C3.01592 13.2503 3.01592 16.0114 4.09092 17.654C5.03453 19.0986 6.13342 20.3452 7.32786 21.3471" stroke="#221F1F" stroke-opacity="0.4" stroke-width="1.5" stroke-linecap="round" stroke-linejoin="round"/>
<path d="M10.6962 23.3975C12.0578 23.9567 13.5031 24.2596 14.9723 24.2596C19.1887 24.2596 23.1184 21.8364 25.8537 17.6424C26.9287 15.9997 26.9287 13.2387 25.8537 11.596C25.4595 10.9902 25.0295 10.4194 24.5876 9.88348" stroke="#221F1F" stroke-opacity="0.4" stroke-width="1.5" stroke-linecap="round" stroke-linejoin="round"/>
<path d="M19.1647 15.4405C18.8542 17.0832 17.4806 18.4229 15.7964 18.7258" stroke="#221F1F" stroke-opacity="0.4" stroke-width="1.5" stroke-linecap="round" stroke-linejoin="round"/>
<path d="M11.9503 17.5725L3.02783 26.275" stroke="#221F1F" stroke-opacity="0.4" stroke-width="1.5" stroke-linecap="round" stroke-linejoin="round"/>
<path d="M26.9166 2.97504L17.9941 11.6776" stroke="#221F1F" stroke-opacity="0.4" stroke-width="1.5" stroke-linecap="round" stroke-linejoin="round"/>
</svg>
