<svg width="25" height="25" viewBox="0 0 25 25" fill="none" xmlns="http://www.w3.org/2000/svg">
<g clip-path="url(#clip0_6_373)">
<path d="M12.2777 24.055C18.8744 24.055 24.2221 18.8391 24.2221 12.405C24.2221 5.97088 18.8744 0.754997 12.2777 0.754997C5.68096 0.754997 0.333252 5.97088 0.333252 12.405C0.333252 18.8391 5.68096 24.055 12.2777 24.055Z" fill="#3577E5"/>
<path d="M13.3925 19.3173V13.0263H15.5425L15.861 10.541H13.3925V8.98766C13.3925 8.28866 13.6314 7.82266 14.6666 7.82266H16.0203V5.57033C15.7814 5.57033 14.9851 5.49266 14.1092 5.49266C12.198 5.49266 10.8443 6.65766 10.8443 8.75466V10.541H8.69434V13.0263H10.8443V19.3173H13.3925Z" fill="white"/>
</g>
<defs>
<clipPath id="clip0_6_373">
<rect width="23.8889" height="23.3" fill="white" transform="translate(0.333252 0.754997)"/>
</clipPath>
</defs>
</svg>
