<svg width="25" height="24" viewBox="0 0 25 24" fill="none" xmlns="http://www.w3.org/2000/svg">
<path d="M24.6114 12.3021C24.6114 11.5351 24.5402 10.807 24.4182 10.0983H12.9263V14.4767H19.5061C19.2112 15.9136 18.3468 17.1271 17.0654 17.9523V20.8648H20.9909C23.2893 18.8358 24.6114 15.8456 24.6114 12.3021Z" fill="#4285F4"/>
<path d="M12.9263 23.69C16.2213 23.69 18.9773 22.6415 20.991 20.8649L17.0654 17.9524C15.9671 18.6514 14.5738 19.0785 12.9263 19.0785C9.74314 19.0785 7.04814 17.0301 6.08201 14.2632H2.03442V17.2631C4.03788 21.0687 8.15665 23.69 12.9263 23.69Z" fill="#34A853"/>
<path d="M6.08166 14.2632C5.82741 13.5642 5.69521 12.8166 5.69521 12.04C5.69521 11.2633 5.83758 10.5158 6.08166 9.81676V6.81688H2.03407C1.20015 8.38964 0.722168 10.1565 0.722168 12.04C0.722168 13.9234 1.20015 15.6903 2.03407 17.2631L6.08166 14.2632Z" fill="#FBBC05"/>
<path d="M12.9263 5.00146C14.7264 5.00146 16.3332 5.59367 17.6044 6.74896L21.0825 3.42871C18.9773 1.54529 16.2213 0.389999 12.9263 0.389999C8.15665 0.389999 4.03788 3.01125 2.03442 6.81692L6.08201 9.81679C7.04814 7.04992 9.74314 5.00146 12.9263 5.00146Z" fill="#EA4335"/>
</svg>
