<svg width="30" height="24" viewBox="0 0 30 24" fill="none" xmlns="http://www.w3.org/2000/svg">
<path d="M11.4773 20.7821V17.7152C11.4772 16.9381 12.2321 16.3067 13.167 16.3018H16.6001C17.5392 16.3018 18.3006 16.9346 18.3006 17.7152V20.7732C18.3005 21.4473 18.9548 21.9951 19.7658 22H22.1079C23.2018 22.0023 24.2519 21.6428 25.0264 21.0007C25.8009 20.3586 26.2361 19.4868 26.2361 18.5775V9.86585C26.2361 9.13139 25.8444 8.43471 25.1666 7.9635L17.2097 2.67427C15.8188 1.74912 13.8323 1.77901 12.4826 2.74538L4.69673 7.9635C3.98691 8.42082 3.56265 9.11956 3.54169 9.86585V18.5686C3.54169 20.4637 5.38995 22 7.66989 22H9.95859C10.349 22.0023 10.7245 21.8751 11.0016 21.6464C11.2787 21.4178 11.4345 21.1067 11.4345 20.7821H11.4773Z" fill="#407CE2"/>
</svg>
