<svg width="55" height="45" viewBox="0 0 55 45" fill="none" xmlns="http://www.w3.org/2000/svg">
<path fill-rule="evenodd" clip-rule="evenodd" d="M12.6093 1.20117H42.6093V31.2012H12.6093V1.20117Z" fill="#C4C4C4" fill-opacity="0.01"/>
<g filter="url(#filter0_d_731_448)">
<path d="M15.6093 13.2012C15.6093 12.0966 16.5047 11.2012 17.6093 11.2012H37.6093C38.7138 11.2012 39.6093 12.0966 39.6093 13.2012V23.2012C39.6093 24.3057 38.7138 25.2012 37.6093 25.2012H17.6093C16.5047 25.2012 15.6093 24.3057 15.6093 23.2012V13.2012Z" fill="white"/>
</g>
<path fill-rule="evenodd" clip-rule="evenodd" d="M18.369 7.70117C17.8167 7.70117 17.369 8.14889 17.369 8.70117C17.369 9.25345 17.8167 9.70117 18.369 9.70117L37.169 9.7012C37.7213 9.70121 38.169 9.25349 38.169 8.70121C38.169 8.14892 37.7213 7.70121 37.169 7.7012L18.369 7.70117ZM17.6093 13.2012H37.6093V23.2012H17.6093L17.6093 13.2012ZM15.6093 13.2012C15.6093 12.0966 16.5047 11.2012 17.6093 11.2012H37.6093C38.7138 11.2012 39.6093 12.0966 39.6093 13.2012V23.2012C39.6093 24.3057 38.7138 25.2012 37.6093 25.2012H17.6093C16.5047 25.2012 15.6093 24.3057 15.6093 23.2012V13.2012ZM21.9485 14.8291C21.6387 15.2495 21.3605 15.5126 20.9356 15.7186C20.5875 15.8751 20.3451 16.2248 20.3451 16.6312V19.8293C20.3451 20.2063 20.5537 20.5346 20.8618 20.705L20.8611 20.7062C21.3971 20.9987 21.6982 21.2469 21.9205 21.5959L21.9235 21.594C22.1008 21.8737 22.4131 22.0594 22.7688 22.0594H32.4496C32.781 22.0594 33.0748 21.8982 33.2567 21.6499L33.2568 21.6499C33.5767 21.2123 33.8605 20.9431 34.3028 20.7327L34.3027 20.7327C34.6401 20.572 34.8733 20.2279 34.8733 19.8293V16.6312C34.8733 16.2424 34.6514 15.9055 34.3274 15.74C33.8141 15.4573 33.52 15.2142 33.302 14.878C33.1261 14.5919 32.8101 14.4012 32.4496 14.4012H22.7688C22.4292 14.4012 22.1292 14.5704 21.9485 14.8291ZM32.8733 19.2491V17.1984C32.5395 16.9781 32.2277 16.7226 31.9501 16.4012H23.2524C22.9945 16.7003 22.7029 16.9729 22.3451 17.2118V19.2647C22.6772 19.4844 22.9876 19.7392 23.264 20.0594H31.9664C32.2242 19.7604 32.5156 19.4879 32.8733 19.2491ZM24.6093 17.2514C24.057 17.2514 23.6093 17.6991 23.6093 18.2514C23.6093 18.8037 24.057 19.2514 24.6093 19.2514H30.6093C31.1615 19.2514 31.6093 18.8037 31.6093 18.2514C31.6093 17.6991 31.1615 17.2514 30.6093 17.2514H24.6093Z" fill="#3E4958"/>
<defs>
<filter id="filter0_d_731_448" x="0.609253" y="0.201172" width="54" height="44" filterUnits="userSpaceOnUse" color-interpolation-filters="sRGB">
<feFlood flood-opacity="0" result="BackgroundImageFix"/>
<feColorMatrix in="SourceAlpha" type="matrix" values="0 0 0 0 0 0 0 0 0 0 0 0 0 0 0 0 0 0 127 0" result="hardAlpha"/>
<feOffset dy="4"/>
<feGaussianBlur stdDeviation="7.5"/>
<feColorMatrix type="matrix" values="0 0 0 0 0 0 0 0 0 0 0 0 0 0 0 0 0 0 0.15 0"/>
<feBlend mode="normal" in2="BackgroundImageFix" result="effect1_dropShadow_731_448"/>
<feBlend mode="normal" in="SourceGraphic" in2="effect1_dropShadow_731_448" result="shape"/>
</filter>
</defs>
</svg>
