<svg width="43" height="42" viewBox="0 0 43 42" fill="none" xmlns="http://www.w3.org/2000/svg">
<path d="M0.964111 0H42.8384V42H0.964111V0Z" fill="white" fill-opacity="0.01"/>
<path d="M15.9192 8H14.2991H13.6708C9.95689 8 6.94617 11.0107 6.94617 14.7246V14.7246V16" stroke="#3E4958" stroke-width="2" stroke-linecap="round"/>
<path d="M27.8833 8H29.5034H30.1317C33.8456 8 36.8563 11.0107 36.8563 14.7246V14.7246V16" stroke="#3E4958" stroke-width="2" stroke-linecap="round"/>
<path d="M27.8833 34H29.5034H30.1317C33.8456 34 36.8563 30.9893 36.8563 27.2754V27.2754V26" stroke="#3E4958" stroke-width="2" stroke-linecap="round"/>
<path d="M15.9192 34H14.2991H13.6708C9.95689 34 6.94617 30.9893 6.94617 27.2754V27.2754V26" stroke="#3E4958" stroke-width="2" stroke-linecap="round"/>
<path d="M16.9163 16V18.9951" stroke="#3E4958" stroke-width="2" stroke-linecap="round"/>
<path d="M27.8466 16V18.9951" stroke="#3E4958" stroke-width="2" stroke-linecap="round"/>
<path d="M22.7758 16V20.5831C22.7758 21.6411 21.9182 22.4987 20.8602 22.4987V22.4987" stroke="#3E4958" stroke-width="2" stroke-linecap="round"/>
<path d="M17.9304 25.3242C20.4094 28.0367 25.0295 27.6412 26.7197 25.3242" stroke="#3E4958" stroke-width="2" stroke-linecap="round"/>
</svg>
