<svg width="43" height="45" viewBox="0 0 43 45" fill="none" xmlns="http://www.w3.org/2000/svg">
<path d="M0.964111 0H42.8384V42H0.964111V0Z" fill="white" fill-opacity="0.01"/>
<path d="M15.9192 8H14.2991H13.6708C9.95689 8 6.94617 11.0107 6.94617 14.7246V14.7246V16" stroke="#3E4958" stroke-width="2" stroke-linecap="round"/>
<path d="M27.8833 8H29.5034H30.1317C33.8456 8 36.8563 11.0107 36.8563 14.7246V14.7246V16" stroke="#3E4958" stroke-width="2" stroke-linecap="round"/>
<path d="M27.8833 34H29.5034H30.1317C33.8456 34 36.8563 30.9893 36.8563 27.2754V27.2754V26" stroke="#3E4958" stroke-width="2" stroke-linecap="round"/>
<path d="M15.9192 34H14.2991H13.6708C9.95689 34 6.94617 30.9893 6.94617 27.2754V27.2754V26" stroke="#3E4958" stroke-width="2" stroke-linecap="round"/>
<g filter="url(#filter0_d_851_257)">
<ellipse cx="21.9013" cy="21" rx="4.98503" ry="5" fill="white"/>
</g>
<ellipse cx="21.9013" cy="21" rx="4.98503" ry="5" stroke="#3E4958" stroke-width="2" stroke-linecap="round"/>
<defs>
<filter id="filter0_d_851_257" x="1.91626" y="5" width="39.9701" height="40" filterUnits="userSpaceOnUse" color-interpolation-filters="sRGB">
<feFlood flood-opacity="0" result="BackgroundImageFix"/>
<feColorMatrix in="SourceAlpha" type="matrix" values="0 0 0 0 0 0 0 0 0 0 0 0 0 0 0 0 0 0 127 0" result="hardAlpha"/>
<feOffset dy="4"/>
<feGaussianBlur stdDeviation="7.5"/>
<feColorMatrix type="matrix" values="0 0 0 0 0 0 0 0 0 0 0 0 0 0 0 0 0 0 0.15 0"/>
<feBlend mode="normal" in2="BackgroundImageFix" result="effect1_dropShadow_851_257"/>
<feBlend mode="normal" in="SourceGraphic" in2="effect1_dropShadow_851_257" result="shape"/>
</filter>
</defs>
</svg>
