<svg width="31" height="31" viewBox="0 0 31 31" fill="none" xmlns="http://www.w3.org/2000/svg">
<path fill-rule="evenodd" clip-rule="evenodd" d="M12.0796 11.2544L8.17939 20.165H5.64354L3.72787 13.063C3.61761 12.6273 3.50736 12.4689 3.16282 12.2841C2.5702 11.9805 1.61925 11.6901 0.778564 11.5184L0.833692 11.2544H4.92689C5.45059 11.2544 5.91918 11.5845 6.02943 12.1653L7.04928 17.3136L9.55757 11.2544H12.0796ZM22.0449 17.2608C22.0531 15.8515 20.8321 15.24 19.8562 14.7512C19.2049 14.425 18.6628 14.1536 18.6683 13.7361C18.6821 13.4193 18.9991 13.0761 19.6882 12.9837C20.0327 12.9441 20.9837 12.9045 22.0587 13.3797L22.4859 11.492C21.9071 11.294 21.1628 11.0959 20.2395 11.0959C17.869 11.0959 16.1876 12.3104 16.1738 14.0397C16.16 15.3202 17.3728 16.0331 18.2824 16.4687C19.2196 16.9043 19.5366 17.1815 19.5366 17.5776C19.5228 18.1716 18.7924 18.4356 18.1033 18.4488C16.9116 18.4618 16.2122 18.1434 15.6652 17.8943L15.6363 17.8812L15.1953 19.8349C15.7604 20.0857 16.794 20.297 17.869 20.3102C20.3911 20.3102 22.0311 19.1089 22.0449 17.2608ZM28.3278 20.165H30.5466L28.6034 11.2544H26.5499C26.0813 11.2544 25.6954 11.5052 25.5301 11.9013L21.9192 20.1518H24.4413L24.9374 18.8185H28.0246L28.3278 20.165ZM25.6403 17.0098L26.9082 13.67L27.6386 17.0098H25.6403ZM13.5259 20.165L15.5105 11.2544H13.1125L11.1279 20.165H13.5259Z" fill="#1A1F71"/>
</svg>
