<svg width="29" height="24" viewBox="0 0 29 24" fill="none" xmlns="http://www.w3.org/2000/svg">
<path d="M25.8013 19.2817L25.8008 19.2822C25.821 19.3135 25.8248 19.3373 25.8246 19.3531L25.8246 19.3533C25.8243 19.3692 25.8195 19.3941 25.7971 19.4265L25.797 19.4267C25.7736 19.4605 25.7304 19.5022 25.6607 19.5368L25.6605 19.5369C25.5921 19.5708 25.5076 19.5928 25.4155 19.5955H3.40506C3.28691 19.5937 3.18326 19.5595 3.10968 19.5116L3.10957 19.5115C3.03639 19.464 3.00873 19.4145 3.00004 19.3875C2.99262 19.3644 2.99263 19.341 3.00718 19.3109C3.02375 19.2767 3.06617 19.2231 3.15384 19.1793L3.15514 19.1786L4.36787 18.5692L4.36833 18.569C4.9386 18.2819 5.42557 17.8687 5.77045 17.3581C6.11633 16.8461 6.3051 16.2561 6.30505 15.6469C6.30505 15.6468 6.30505 15.6468 6.30505 15.6468V10.1564C6.30605 8.74882 6.85065 7.3619 7.88631 6.20506L7.88632 6.20506C8.92389 5.04607 10.3985 4.18252 12.1011 3.76457C12.302 3.71604 12.4987 3.61021 12.6515 3.44244L12.6518 3.44215C12.8073 3.27123 12.9089 3.04301 12.9117 2.78908L12.9118 2.78908V2.78109C12.9118 2.52202 13.0338 2.24224 13.3061 2.01421C13.5822 1.78312 13.9793 1.6375 14.4139 1.6375C14.8485 1.6375 15.2456 1.78312 15.5216 2.01421C15.794 2.24224 15.916 2.52202 15.916 2.78109H15.916L15.916 2.78851C15.9187 3.04242 16.0201 3.27091 16.1759 3.44216L16.1761 3.44243C16.3291 3.61042 16.526 3.71621 16.727 3.76464C18.4294 4.1826 19.904 5.04613 20.9415 6.20506L21.463 5.73816L20.9415 6.20506C21.977 7.36175 22.5216 8.74848 22.5228 10.1559C22.5228 10.1561 22.5228 10.1563 22.5228 10.1565L25.8013 19.2817ZM25.8013 19.2817C25.7802 19.2516 25.7408 19.2134 25.6759 19.1812L25.6726 19.1795L24.4599 18.5702L24.4595 18.5699C23.8892 18.2829 23.4022 17.8696 23.0573 17.359C22.7114 16.8469 22.5227 16.257 22.5228 15.6478C22.5228 15.6478 22.5228 15.6478 22.5228 15.6477L25.8013 19.2817ZM26.3726 19.825C26.4694 19.6852 26.5217 19.5268 26.5245 19.3652C26.5263 19.2598 26.507 19.1553 26.4678 19.0559L26.3726 19.825Z" stroke="#221F1F" stroke-opacity="0.6" stroke-width="1.4"/>
<path d="M12.5103 22.5524C12.926 22.7987 13.4043 22.9608 13.9075 23.0261C14.4107 23.0915 14.9252 23.0581 15.4105 22.9289C15.8957 22.7996 16.3386 22.5778 16.7041 22.281C17.0697 21.9842 17.3481 21.6205 17.5174 21.2184H11.3087C11.5354 21.7561 11.955 22.2221 12.5103 22.5524Z" fill="#221F1F" fill-opacity="0.6"/>
</svg>
