<svg width="36" height="38" viewBox="0 0 36 38" fill="none" xmlns="http://www.w3.org/2000/svg">
<g clip-path="url(#clip0_116_591)">
<path d="M7.06252 19.7679L18.7292 7.44194C20.0829 6.01174 21.9189 5.20825 23.8334 5.20825C25.7478 5.20825 27.5838 6.01174 28.9375 7.44194C30.2912 8.87215 31.0517 10.8119 31.0517 12.8346C31.0517 14.8572 30.2912 16.797 28.9375 18.2272L17.2709 30.5531C15.9171 31.9833 14.0811 32.7868 12.1667 32.7868C10.2523 32.7868 8.41623 31.9833 7.06252 30.5531C5.70881 29.1229 4.9483 27.1831 4.9483 25.1605C4.9483 23.1379 5.70881 21.1981 7.06252 19.7679" stroke="white" stroke-width="2" stroke-linecap="round" stroke-linejoin="round"/>
<path d="M12.8958 13.6049L23.1042 24.3901" stroke="white" stroke-width="2" stroke-linecap="round" stroke-linejoin="round"/>
</g>
<defs>
<clipPath id="clip0_116_591">
<rect width="35" height="36.9779" fill="white" transform="translate(0.500015 0.508606)"/>
</clipPath>
</defs>
</svg>
